<svg xmlns="http://www.w3.org/2000/svg" width="206.98" height="35" viewBox="0 0 206.98 35"><rect class="svg__rect" x="0" y="0" width="115.31" height="35" fill="#419B5A"/><rect class="svg__rect" x="113.31" y="0" width="93.66999999999999" height="35" fill="#ECECEC"/><path class="svg__text" d="M15.69 22L14.22 22L14.22 13.47L16.14 13.47L18.60 20.01L21.06 13.47L22.97 13.47L22.97 22L21.49 22L21.49 19.19L21.64 15.43L19.12 22L18.06 22L15.55 15.43L15.69 19.19L15.69 22ZM28.49 22L26.95 22L30.17 13.47L31.50 13.47L34.73 22L33.18 22L32.49 20.01L29.18 20.01L28.49 22ZM30.83 15.28L29.60 18.82L32.07 18.82L30.83 15.28ZM41.14 22L38.69 22L38.69 13.47L41.21 13.47Q42.34 13.47 43.21 13.97Q44.09 14.48 44.57 15.40Q45.05 16.33 45.05 17.52L45.05 17.52L45.05 17.95Q45.05 19.16 44.57 20.08Q44.08 21.00 43.19 21.50Q42.30 22 41.14 22L41.14 22ZM40.17 14.66L40.17 20.82L41.14 20.82Q42.30 20.82 42.93 20.09Q43.55 19.36 43.56 17.99L43.56 17.99L43.56 17.52Q43.56 16.13 42.96 15.40Q42.35 14.66 41.21 14.66L41.21 14.66L40.17 14.66ZM55.09 22L49.51 22L49.51 13.47L55.05 13.47L55.05 14.66L51.00 14.66L51.00 17.02L54.50 17.02L54.50 18.19L51.00 18.19L51.00 20.82L55.09 20.82L55.09 22ZM66.65 22L64.68 13.47L66.15 13.47L67.47 19.88L69.10 13.47L70.34 13.47L71.96 19.89L73.27 13.47L74.74 13.47L72.77 22L71.35 22L69.73 15.77L68.07 22L66.65 22ZM80.38 22L78.90 22L78.90 13.47L80.38 13.47L80.38 22ZM86.87 14.66L84.23 14.66L84.23 13.47L91.00 13.47L91.00 14.66L88.34 14.66L88.34 22L86.87 22L86.87 14.66ZM96.24 22L94.75 22L94.75 13.47L96.24 13.47L96.24 17.02L100.05 17.02L100.05 13.47L101.53 13.47L101.53 22L100.05 22L100.05 18.21L96.24 18.21L96.24 22Z" fill="#FFFFFF"/><path class="svg__text" d="M133.88 22L127.50 22L127.50 13.60L129.88 13.60L129.88 20.11L133.88 20.11L133.88 22ZM137.87 17.80L137.87 17.80Q137.87 16.55 138.48 15.55Q139.08 14.56 140.15 14.00Q141.21 13.43 142.54 13.43L142.54 13.43Q143.87 13.43 144.93 14.00Q146.00 14.56 146.60 15.55Q147.21 16.55 147.21 17.80L147.21 17.80Q147.21 19.05 146.60 20.04Q146.00 21.04 144.94 21.60Q143.87 22.17 142.54 22.17L142.54 22.17Q141.21 22.17 140.15 21.60Q139.08 21.04 138.48 20.04Q137.87 19.05 137.87 17.80ZM140.27 17.80L140.27 17.80Q140.27 18.51 140.57 19.05Q140.87 19.60 141.39 19.90Q141.91 20.20 142.54 20.20L142.54 20.20Q143.18 20.20 143.69 19.90Q144.21 19.60 144.51 19.05Q144.81 18.51 144.81 17.80L144.81 17.80Q144.81 17.09 144.51 16.54Q144.21 16 143.69 15.70Q143.18 15.40 142.54 15.40L142.54 15.40Q141.90 15.40 141.39 15.70Q140.87 16 140.57 16.54Q140.27 17.09 140.27 17.80ZM151.51 17.80L151.51 17.80Q151.51 16.54 152.11 15.54Q152.70 14.55 153.76 13.99Q154.81 13.43 156.13 13.43L156.13 13.43Q157.28 13.43 158.20 13.84Q159.13 14.25 159.74 15.02L159.74 15.02L158.23 16.39Q157.42 15.40 156.25 15.40L156.25 15.40Q155.56 15.40 155.03 15.70Q154.50 16 154.20 16.54Q153.91 17.09 153.91 17.80L153.91 17.80Q153.91 18.51 154.20 19.05Q154.50 19.60 155.03 19.90Q155.56 20.20 156.25 20.20L156.25 20.20Q157.42 20.20 158.23 19.22L158.23 19.22L159.74 20.58Q159.13 21.35 158.21 21.76Q157.28 22.17 156.13 22.17L156.13 22.17Q154.81 22.17 153.76 21.61Q152.70 21.05 152.11 20.05Q151.51 19.06 151.51 17.80ZM164.21 18.26L164.21 18.26L164.21 13.60L166.59 13.60L166.59 18.19Q166.59 20.20 168.18 20.20L168.18 20.20Q169.76 20.20 169.76 18.19L169.76 18.19L169.76 13.60L172.11 13.60L172.11 18.26Q172.11 20.13 171.07 21.15Q170.03 22.17 168.16 22.17L168.16 22.17Q166.28 22.17 165.24 21.15Q164.21 20.13 164.21 18.26ZM176.61 21.24L176.61 21.24L177.38 19.49Q177.95 19.86 178.69 20.09Q179.44 20.32 180.16 20.32L180.16 20.32Q181.52 20.32 181.53 19.64L181.53 19.64Q181.53 19.28 181.14 19.11Q180.75 18.93 179.88 18.74L179.88 18.74Q178.93 18.53 178.30 18.30Q177.66 18.06 177.21 17.55Q176.75 17.03 176.75 16.16L176.75 16.16Q176.75 15.39 177.17 14.77Q177.59 14.15 178.42 13.79Q179.26 13.43 180.47 13.43L180.47 13.43Q181.29 13.43 182.10 13.62Q182.90 13.80 183.52 14.17L183.52 14.17L182.79 15.93Q181.59 15.28 180.45 15.28L180.45 15.28Q179.75 15.28 179.42 15.49Q179.10 15.70 179.10 16.04L179.10 16.04Q179.10 16.37 179.49 16.54Q179.87 16.71 180.72 16.89L180.72 16.89Q181.68 17.10 182.31 17.33Q182.94 17.56 183.40 18.07Q183.87 18.58 183.87 19.46L183.87 19.46Q183.87 20.21 183.45 20.83Q183.03 21.44 182.19 21.80Q181.35 22.17 180.14 22.17L180.14 22.17Q179.12 22.17 178.16 21.92Q177.20 21.67 176.61 21.24ZM190.23 15.48L187.65 15.48L187.65 13.60L195.17 13.60L195.17 15.48L192.61 15.48L192.61 22L190.23 22L190.23 15.48Z" fill="#419B5A" x="126.31"/></svg>